<svg width="32" height="32" viewBox="0 0 32 32" fill="none" xmlns="http://www.w3.org/2000/svg">
<path fill-rule="evenodd" clip-rule="evenodd" d="M12.3692 16H27.0769C27.5077 16 27.9385 15.6923 28 15.2616L30.7077 5.78461C30.8923 5.10769 30.4 4.55384 29.7846 4.55384H7.07692L6.70769 3.13846C6.52308 2.46153 5.90769 2.03076 5.29231 2.03076H2.83077C2.03077 2.03076 1.2923 2.64615 1.23077 3.44615C1.16923 4.30769 1.90769 5.04615 2.70769 5.04615H4.12307L8.8 20.8616C8.98461 21.5385 9.53846 21.9693 10.2154 21.9693H27.5692C28.3692 21.9693 29.1077 21.3539 29.1692 20.5539C29.2308 19.6923 28.4923 18.9539 27.6923 18.9539H12.4308C11.7538 18.9539 11.2 18.5231 11.0154 17.9077V17.8462C10.7077 16.9231 11.4462 16 12.3692 16ZM12.677 29.9077C14.0365 29.9077 15.1385 28.8056 15.1385 27.4462C15.1385 26.0867 14.0365 24.9846 12.677 24.9846C11.3175 24.9846 10.2155 26.0867 10.2155 27.4462C10.2155 28.8056 11.3175 29.9077 12.677 29.9077ZM27.1384 27.4462C27.1384 28.8056 26.0363 29.9077 24.6768 29.9077C23.3174 29.9077 22.2153 28.8056 22.2153 27.4462C22.2153 26.0867 23.3174 24.9846 24.6768 24.9846C26.0363 24.9846 27.1384 26.0867 27.1384 27.4462Z" fill="white"/>
</svg>
