<svg width="29" height="31" viewBox="0 0 29 31" fill="none" xmlns="http://www.w3.org/2000/svg">
<path d="M14.5 0C11.8256 0 9.59871 2.03161 9.22494 4.65H4.00943C3.94452 4.63871 3.87876 4.63314 3.8129 4.63335C3.756 4.6346 3.69926 4.64016 3.64317 4.65H1.15974C1.00822 4.64782 0.85778 4.67628 0.717172 4.73372C0.576564 4.79117 0.448588 4.87645 0.340681 4.98461C0.232773 5.09278 0.147088 5.22167 0.0886026 5.36379C0.0301177 5.50592 0 5.65844 0 5.8125C0 5.96656 0.0301177 6.11908 0.0886026 6.26121C0.147088 6.40333 0.232773 6.53222 0.340681 6.64039C0.448588 6.74855 0.576564 6.83383 0.717172 6.89128C0.85778 6.94872 1.00822 6.97718 1.15974 6.975H2.79005L4.7092 27.1477C4.91584 29.3228 6.73351 31 8.8825 31H20.116C22.2651 31 24.0828 29.323 24.2893 27.1477L26.21 6.975H27.8403C27.9918 6.97718 28.1422 6.94872 28.2828 6.89128C28.4234 6.83383 28.5514 6.74855 28.6593 6.64039C28.7672 6.53222 28.8529 6.40333 28.9114 6.26121C28.9699 6.11908 29 5.96656 29 5.8125C29 5.65844 28.9699 5.50592 28.9114 5.36379C28.8529 5.22167 28.7672 5.09278 28.6593 4.98461C28.5514 4.87645 28.4234 4.79117 28.2828 4.73372C28.1422 4.67628 27.9918 4.64782 27.8403 4.65H25.3583C25.237 4.62999 25.1134 4.62999 24.9921 4.65H19.7751C19.4013 2.03161 17.1744 0 14.5 0ZM14.5 2.325C15.9325 2.325 17.1077 3.30782 17.4435 4.65H11.5565C11.8923 3.30782 13.0675 2.325 14.5 2.325ZM5.08588 6.975H23.9126L22.0128 26.9237C21.9175 27.9274 21.1076 28.675 20.116 28.675H8.8825C7.89233 28.675 7.08091 27.926 6.98568 26.9237L5.08588 6.975ZM11.8141 10.8333C11.5111 10.8382 11.2223 10.965 11.0113 11.1861C10.8003 11.4072 10.6842 11.7044 10.6885 12.0125V23.6375C10.6864 23.7915 10.7143 23.9445 10.7709 24.0874C10.8274 24.2304 10.9112 24.3605 11.0176 24.4702C11.124 24.5799 11.2508 24.667 11.3906 24.7265C11.5304 24.7859 11.6804 24.8166 11.8319 24.8166C11.9835 24.8166 12.1335 24.7859 12.2733 24.7265C12.4131 24.667 12.5399 24.5799 12.6463 24.4702C12.7527 24.3605 12.8365 24.2304 12.893 24.0874C12.9495 23.9445 12.9775 23.7915 12.9754 23.6375V12.0125C12.9776 11.8569 12.949 11.7024 12.8914 11.5583C12.8338 11.4141 12.7484 11.2832 12.6401 11.1732C12.5318 11.0632 12.4028 10.9765 12.261 10.9181C12.1191 10.8597 11.9671 10.8309 11.8141 10.8333ZM17.1502 10.8333C16.8472 10.8382 16.5585 10.965 16.3474 11.1861C16.1364 11.4072 16.0203 11.7044 16.0246 12.0125V23.6375C16.0225 23.7915 16.0505 23.9445 16.107 24.0874C16.1635 24.2304 16.2473 24.3605 16.3537 24.4702C16.4601 24.5799 16.5869 24.667 16.7267 24.7265C16.8665 24.7859 17.0165 24.8166 17.1681 24.8166C17.3196 24.8166 17.4696 24.7859 17.6094 24.7265C17.7492 24.667 17.876 24.5799 17.9824 24.4702C18.0888 24.3605 18.1726 24.2304 18.2292 24.0874C18.2857 23.9445 18.3136 23.7915 18.3115 23.6375V12.0125C18.3137 11.8569 18.2852 11.7024 18.2275 11.5583C18.1699 11.4141 18.0845 11.2832 17.9762 11.1732C17.8679 11.0632 17.739 10.9765 17.5971 10.9181C17.4552 10.8597 17.3032 10.8309 17.1502 10.8333Z" fill="white"/>
</svg>
